<svg version="1.1" id="Layer_1" xmlns="http://www.w3.org/2000/svg" xmlns:xlink="http://www.w3.org/1999/xlink" x="0px" y="0px"
	 width="100%" viewBox="0 0 1222 1080" enable-background="new 0 0 1222 1080" xml:space="preserve">
<path fill="#000000" opacity="1.000000" stroke="none" 
	d="
M711.000000,1081.000000 
	C474.000000,1081.000000 237.500000,1081.000000 1.000000,1081.000000 
	C1.000000,721.000000 1.000000,361.000000 1.000000,1.000000 
	C408.333344,1.000000 815.666687,1.000000 1223.000000,1.000000 
	C1223.000000,361.000000 1223.000000,721.000000 1223.000000,1081.000000 
	C1052.500000,1081.000000 882.000000,1081.000000 711.000000,1081.000000 
M842.504517,573.932129 
	C842.619568,571.980103 842.983643,570.005798 842.811340,568.079468 
	C840.932373,547.065674 838.906738,526.064880 837.047363,505.049408 
	C835.258057,484.826202 833.648376,464.587158 831.891174,444.361053 
	C831.395386,438.655121 830.658875,432.970062 830.014771,427.111603 
	C827.616150,427.111603 825.961609,427.111603 824.307129,427.111603 
	C684.651550,427.111603 544.995972,427.111572 405.340393,427.111603 
	C404.673767,427.111603 403.997894,427.184357 403.342133,427.100159 
	C400.350342,426.716125 399.298035,427.979950 399.143829,431.002991 
	C397.830109,456.759491 396.389648,482.509552 394.953491,508.259674 
	C394.555176,515.401306 394.013306,522.534912 393.591248,529.675354 
	C392.442383,549.112427 391.322418,568.551208 390.013641,588.869202 
	C388.960785,606.550293 387.907928,624.231384 386.867615,641.701843 
	C402.109253,642.225037 414.710907,635.292969 427.983215,631.055664 
	C430.243225,633.630676 432.192963,636.132935 434.464386,638.297485 
	C435.332092,639.124390 437.064240,639.747986 438.185608,639.496704 
	C450.292816,636.782959 462.345947,633.829468 474.435944,631.037109 
	C483.582367,628.924622 483.596588,628.986145 486.650940,638.118164 
	C491.304718,637.874268 496.398651,638.600281 500.815430,637.196106 
	C516.205139,632.303528 531.837646,627.876648 545.239746,618.143921 
	C552.144104,613.129944 559.548462,608.804443 566.741882,604.268005 
	C566.741882,604.268005 566.710999,604.164551 567.551025,604.728455 
	C566.672058,607.942444 565.793152,611.156494 564.740173,615.006958 
	C571.494324,612.599243 577.474426,610.642822 583.316650,608.337158 
	C589.551331,605.876526 595.751770,604.094421 602.521179,605.942688 
	C604.737061,606.547668 607.089355,606.656616 609.380920,606.980469 
	C617.554382,608.135559 625.478943,609.458679 632.877869,613.959351 
	C641.331116,619.101318 650.687256,622.734253 659.446838,627.406006 
	C665.364197,630.562012 671.099304,634.134460 676.606934,637.964844 
	C683.298096,642.618469 688.547913,649.262939 697.884216,649.682129 
	C705.820129,650.038330 713.688416,651.899414 723.162109,653.333069 
	C718.844299,647.711548 715.462769,643.309021 711.243347,637.815552 
	C713.865173,637.815552 715.689697,637.481018 717.336609,637.879883 
	C721.808899,638.962952 726.399719,639.913513 730.582458,641.742615 
	C735.528870,643.905701 739.874268,647.503235 744.878479,649.460938 
	C753.702637,652.913025 762.828552,655.593506 772.113525,658.692200 
	C772.242126,658.466614 772.874939,657.663696 773.190186,656.751160 
	C774.615845,652.624695 776.942566,651.088684 781.364441,652.935547 
	C786.794922,655.203491 791.864624,652.932861 797.313293,651.049255 
	C794.043945,646.588867 790.967468,642.507324 788.018311,638.335815 
	C785.009827,634.080383 782.126465,629.736511 778.830627,624.907349 
	C786.236389,625.189697 793.604004,622.211060 798.688843,628.665039 
	C801.563171,632.313232 803.599792,636.714600 805.524536,640.996643 
	C808.725342,648.117798 816.513733,649.686951 821.923950,644.148193 
	C823.324280,642.714600 825.826660,640.304688 826.679626,640.715759 
	C833.189087,643.852600 841.913879,643.793396 844.667786,652.811157 
	C845.216797,654.608948 847.696289,655.817139 849.285583,657.297241 
	C849.685486,656.993103 850.085449,656.689026 850.485352,656.384888 
	C848.225647,630.401489 845.993408,604.415527 843.634094,578.441162 
	C843.500305,576.968140 842.323486,575.589844 842.504517,573.932129 
M167.435272,655.837402 
	C176.523636,656.773926 185.620377,657.636414 194.698502,658.663330 
	C210.766998,660.480957 226.594315,663.007629 242.370911,655.605591 
	C260.590698,647.057373 280.079010,645.026855 300.076538,647.937561 
	C305.202271,648.683655 310.451538,648.581055 315.729736,648.873108 
	C316.842499,637.522217 317.842468,627.321594 318.991028,616.242493 
	C320.148163,604.496521 321.274353,592.747375 322.469177,581.005249 
	C324.622192,559.845703 326.846008,538.693420 328.982239,517.532227 
	C330.283356,504.643341 331.467255,491.742645 332.719513,478.848816 
	C334.354706,462.012482 336.005341,445.177612 337.709015,427.731140 
	C335.605286,427.731140 333.814880,427.728699 332.024506,427.731476 
	C285.546051,427.803955 239.065598,427.678497 192.591217,428.151398 
	C185.118118,428.227417 180.257507,426.191956 176.033676,420.171844 
	C173.499893,416.560547 172.516968,413.486115 173.525604,409.224792 
	C174.474014,405.217896 174.537689,401.005341 175.050858,396.890808 
	C175.948395,389.694580 176.892075,382.504120 177.860184,374.970703 
	C221.659149,374.970703 264.912750,374.970703 308.562683,374.970703 
	C308.847321,371.041840 309.103546,367.505188 309.381592,363.667480 
	C321.436951,364.561584 332.938995,365.414642 344.601013,366.279572 
	C345.337860,359.187531 345.985260,352.956421 346.672729,346.339600 
	C332.261566,344.503906 334.698242,334.127380 335.821136,324.326447 
	C283.392273,322.779480 231.342300,322.785004 179.472778,317.055054 
	C119.215103,429.019257 102.938911,546.903442 129.511490,672.276123 
	C142.776550,666.385071 154.714615,661.083313 167.435272,655.837402 
M1044.053223,377.835175 
	C1045.472046,386.963654 1046.268311,396.247223 1048.492188,405.175140 
	C1050.545166,413.417175 1049.203003,419.048553 1041.783325,423.983612 
	C1037.180054,427.045471 1033.155273,429.119568 1027.432373,429.088562 
	C984.481140,428.855591 941.528137,428.961761 898.575623,428.961761 
	C896.675232,428.961761 894.774841,428.961731 892.698608,428.961731 
	C892.870178,431.939728 892.866638,434.110718 893.138000,436.246796 
	C896.126282,459.767334 899.186279,483.278809 902.165710,506.800446 
	C903.866150,520.224792 905.397278,533.670593 907.108093,547.093506 
	C909.039856,562.249817 910.993286,577.404785 913.132629,592.532593 
	C913.956909,598.361328 915.318481,604.114014 915.967896,610.713623 
	C916.658325,617.123474 917.295471,623.540039 918.112793,629.933716 
	C918.205200,630.656433 919.200439,631.606750 919.966980,631.847839 
	C928.789856,634.622742 937.643616,637.300232 946.501282,639.963501 
	C952.485596,641.762695 959.364136,642.198547 964.306702,645.525818 
	C975.496643,653.058655 987.991211,655.245239 1000.710754,657.100220 
	C1013.486511,658.963318 1026.323120,660.416138 1039.143188,661.964844 
	C1042.176025,662.331299 1045.249634,662.362549 1049.089600,662.690735 
	C1050.372681,663.004211 1051.650513,663.341125 1052.939697,663.627502 
	C1068.271729,667.034546 1083.592407,670.495972 1098.950928,673.779541 
	C1101.773438,674.382874 1103.589355,673.769775 1104.168335,669.862305 
	C1106.466553,654.350464 1109.922974,638.997986 1111.885132,623.452026 
	C1113.903076,607.463867 1115.296631,591.339172 1115.821533,575.237061 
	C1116.318359,559.995056 1115.615845,544.691833 1114.914429,529.439758 
	C1114.317261,516.454529 1113.655029,503.404022 1111.780273,490.563629 
	C1109.543335,475.242981 1106.550171,459.976105 1102.850220,444.940460 
	C1098.458862,427.095001 1093.585083,409.313141 1087.749268,391.896118 
	C1083.313843,378.658325 1077.259399,365.939148 1071.531616,353.165771 
	C1066.793701,342.600037 1061.572876,332.245972 1056.377197,321.892975 
	C1054.235474,317.625458 1051.599487,313.606079 1049.470215,309.957062 
	C1046.248779,311.842163 1043.743774,314.450012 1041.017700,314.706268 
	C1028.957397,315.839874 1016.834229,316.310181 1004.732361,316.994904 
	C997.450684,317.406921 990.165894,317.764282 982.883240,318.159149 
	C965.685852,319.091522 948.495239,320.181488 931.289551,320.918701 
	C918.712219,321.457611 906.115173,321.536438 893.060120,321.830902 
	C893.060120,325.748291 892.699707,328.933258 893.128479,332.008209 
	C894.358032,340.826752 892.294312,344.321106 883.987549,346.597992 
	C882.926147,346.888916 881.880920,347.238861 880.546387,347.647797 
	C881.381958,354.585785 882.184631,361.250549 882.958740,367.678162 
	C894.985840,366.529694 906.285278,365.450714 917.767761,364.354279 
	C917.988281,368.402313 918.191162,372.124725 918.405579,376.060028 
	C921.036072,376.060028 923.027405,376.057831 925.018738,376.060333 
	C964.346375,376.109741 1003.674072,376.159729 1043.205444,376.552429 
	C1043.382202,376.760345 1043.599121,376.910004 1044.053223,377.835175 
M708.786316,68.901878 
	C707.852478,68.604874 706.938049,68.156273 705.981873,68.034073 
	C695.087769,66.641861 684.206848,65.107750 673.283630,63.990726 
	C658.571533,62.486259 643.838196,60.432934 629.090942,60.221611 
	C610.736816,59.958611 592.347778,61.116959 573.996521,62.090130 
	C564.333313,62.602573 554.629761,63.513710 545.102478,65.159630 
	C530.510986,67.680435 515.927490,70.481415 501.575806,74.096970 
	C483.898560,78.550308 466.247498,83.321304 448.977539,89.123024 
	C427.919342,96.197357 407.316345,104.674080 387.936676,115.652397 
	C370.442444,125.562630 353.056274,135.717316 336.110809,146.529602 
	C312.381104,161.670685 291.040863,179.967361 270.519867,199.145157 
	C261.007660,208.034729 252.319000,217.809982 243.345062,227.267288 
	C241.501373,229.210251 240.049759,231.525238 237.748169,234.547592 
	C264.360626,236.394089 290.061066,238.414047 315.792694,239.892029 
	C338.715057,241.208664 361.666565,242.079666 384.614777,242.869812 
	C416.233154,243.958511 447.855255,245.063904 479.485260,245.658112 
	C522.785889,246.471573 566.097351,247.371994 609.400696,247.222870 
	C673.694397,247.001434 737.987183,246.036484 802.275940,245.087921 
	C825.912842,244.739151 849.550232,243.805038 873.163757,242.653275 
	C899.570557,241.365234 925.958557,239.647507 952.338928,237.879715 
	C966.419128,236.936172 980.465820,235.492752 996.186951,234.131241 
	C990.610657,228.359787 986.070801,223.535400 981.395203,218.846298 
	C969.113647,206.529053 957.355469,193.604385 944.288574,182.180191 
	C931.748230,171.216309 918.031006,161.546295 904.450623,151.839752 
	C892.475525,143.280457 880.464844,134.561264 867.591309,127.518547 
	C848.851990,117.266815 829.559082,107.931252 810.054688,99.205521 
	C795.817627,92.836266 780.990784,87.684814 766.175964,82.742661 
	C756.303650,79.449310 746.010437,77.393837 735.867310,74.942963 
	C727.161377,72.839363 718.401062,70.960823 708.786316,68.901878 
M530.500000,325.765839 
	C493.763916,325.765839 457.027832,325.765839 419.785492,325.765839 
	C421.137451,337.262054 420.958893,348.019623 405.087250,347.845947 
	C404.626953,354.201172 404.211395,359.938660 403.745453,366.371948 
	C411.225311,365.780243 417.984100,365.431915 424.696411,364.672607 
	C435.816040,363.414734 436.012146,362.173218 438.472137,374.721313 
	C487.506287,374.721313 536.568665,374.721313 585.710876,374.721313 
	C585.710876,358.213348 585.710876,341.998779 585.710876,325.765594 
	C567.410583,325.765594 549.455261,325.765594 530.500000,325.765839 
M746.500000,375.011841 
	C758.653076,375.011841 770.814331,374.753204 782.955383,375.135437 
	C788.016296,375.294769 791.655579,374.160736 793.630554,369.350922 
	C795.129456,365.700562 797.725159,364.966400 801.546692,365.177277 
	C808.930542,365.584717 816.352905,365.296234 824.094482,365.296234 
	C823.597961,359.885498 823.104858,354.512695 822.645325,349.505615 
	C819.441589,348.823822 816.403748,348.937317 814.389893,347.557007 
	C811.856018,345.820221 809.366821,343.160675 808.308167,340.352692 
	C807.065308,337.055908 807.039795,333.166168 807.104675,329.544647 
	C807.184448,325.096222 805.767517,323.551086 801.038452,323.618805 
	C758.934998,324.221863 716.828003,324.580048 674.721619,324.969086 
	C665.285461,325.056305 655.847900,324.981903 646.302246,324.981903 
	C646.302246,342.014252 646.302246,358.369965 646.302246,375.011871 
	C679.612793,375.011871 712.556396,375.011871 746.500000,375.011841 
z"/>
<path fill="#E31B22" opacity="1.000000" stroke="none" 
	d="
M709.225586,68.942314 
	C718.401062,70.960823 727.161377,72.839363 735.867310,74.942963 
	C746.010437,77.393837 756.303650,79.449310 766.175964,82.742661 
	C780.990784,87.684814 795.817627,92.836266 810.054688,99.205521 
	C829.559082,107.931252 848.851990,117.266815 867.591309,127.518547 
	C880.464844,134.561264 892.475525,143.280457 904.450623,151.839752 
	C918.031006,161.546295 931.748230,171.216309 944.288574,182.180191 
	C957.355469,193.604385 969.113647,206.529053 981.395203,218.846298 
	C986.070801,223.535400 990.610657,228.359787 996.186951,234.131241 
	C980.465820,235.492752 966.419128,236.936172 952.338928,237.879715 
	C925.958557,239.647507 899.570557,241.365234 873.163757,242.653275 
	C849.550232,243.805038 825.912842,244.739151 802.275940,245.087921 
	C737.987183,246.036484 673.694397,247.001434 609.400696,247.222870 
	C566.097351,247.371994 522.785889,246.471573 479.485260,245.658112 
	C447.855255,245.063904 416.233154,243.958511 384.614777,242.869812 
	C361.666565,242.079666 338.715057,241.208664 315.792694,239.892029 
	C290.061066,238.414047 264.360626,236.394089 237.748169,234.547592 
	C240.049759,231.525238 241.501373,229.210251 243.345062,227.267288 
	C252.319000,217.809982 261.007660,208.034729 270.519867,199.145157 
	C291.040863,179.967361 312.381104,161.670685 336.110809,146.529602 
	C353.056274,135.717316 370.442444,125.562630 387.936676,115.652397 
	C407.316345,104.674080 427.919342,96.197357 448.977539,89.123024 
	C466.247498,83.321304 483.898560,78.550308 501.575806,74.096970 
	C515.927490,70.481415 530.510986,67.680435 545.102478,65.159630 
	C554.629761,63.513710 564.333313,62.602573 573.996521,62.090130 
	C592.347778,61.116959 610.736816,59.958611 629.090942,60.221611 
	C643.838196,60.432934 658.571533,62.486259 673.283630,63.990726 
	C684.206848,65.107750 695.087769,66.641861 705.981873,68.034073 
	C706.938049,68.156273 707.852478,68.604874 709.225586,68.942314 
z"/>
<path fill="#E31B22" opacity="1.000000" stroke="none" 
	d="
M916.435303,609.901367 
	C915.318481,604.114014 913.956909,598.361328 913.132629,592.532593 
	C910.993286,577.404785 909.039856,562.249817 907.108093,547.093506 
	C905.397278,533.670593 903.866150,520.224792 902.165710,506.800446 
	C899.186279,483.278809 896.126282,459.767334 893.138000,436.246796 
	C892.866638,434.110718 892.870178,431.939728 892.698608,428.961731 
	C894.774841,428.961731 896.675232,428.961761 898.575623,428.961761 
	C941.528137,428.961761 984.481140,428.855591 1027.432373,429.088562 
	C1033.155273,429.119568 1037.180054,427.045471 1041.783325,423.983612 
	C1049.203003,419.048553 1050.545166,413.417175 1048.492188,405.175140 
	C1046.268311,396.247223 1045.472046,386.963654 1043.954712,377.169006 
	C1043.662842,376.138672 1043.378052,376.040924 1043.001709,376.209564 
	C1003.674072,376.159729 964.346375,376.109741 925.018738,376.060333 
	C923.027405,376.057831 921.036072,376.060028 918.405579,376.060028 
	C918.191162,372.124725 917.988281,368.402313 917.767761,364.354279 
	C906.285278,365.450714 894.985840,366.529694 882.958740,367.678162 
	C882.184631,361.250549 881.381958,354.585785 880.546387,347.647797 
	C881.880920,347.238861 882.926147,346.888916 883.987549,346.597992 
	C892.294312,344.321106 894.358032,340.826752 893.128479,332.008209 
	C892.699707,328.933258 893.060120,325.748291 893.060120,321.830902 
	C906.115173,321.536438 918.712219,321.457611 931.289551,320.918701 
	C948.495239,320.181488 965.685852,319.091522 982.883240,318.159149 
	C990.165894,317.764282 997.450684,317.406921 1004.732361,316.994904 
	C1016.834229,316.310181 1028.957397,315.839874 1041.017700,314.706268 
	C1043.743774,314.450012 1046.248779,311.842163 1049.470215,309.957062 
	C1051.599487,313.606079 1054.235474,317.625458 1056.377197,321.892975 
	C1061.572876,332.245972 1066.793701,342.600037 1071.531616,353.165771 
	C1077.259399,365.939148 1083.313843,378.658325 1087.749268,391.896118 
	C1093.585083,409.313141 1098.458862,427.095001 1102.850220,444.940460 
	C1106.550171,459.976105 1109.543335,475.242981 1111.780273,490.563629 
	C1113.655029,503.404022 1114.317261,516.454529 1114.914429,529.439758 
	C1115.615845,544.691833 1116.318359,559.995056 1115.821533,575.237061 
	C1115.296631,591.339172 1113.903076,607.463867 1111.885132,623.452026 
	C1109.922974,638.997986 1106.466553,654.350464 1104.168335,669.862305 
	C1103.589355,673.769775 1101.773438,674.382874 1098.950928,673.779541 
	C1083.592407,670.495972 1068.271729,667.034546 1052.939697,663.627502 
	C1051.650513,663.341125 1050.372681,663.004211 1048.370361,662.445557 
	C1002.530945,648.233704 959.281677,629.572937 916.435303,609.901367 
z"/>
<path fill="#E31B22" opacity="1.000000" stroke="none" 
	d="
M166.652649,655.781616 
	C154.714615,661.083313 142.776550,666.385071 129.511490,672.276123 
	C102.938911,546.903442 119.215103,429.019257 179.472778,317.055054 
	C231.342300,322.785004 283.392273,322.779480 335.821136,324.326447 
	C334.698242,334.127380 332.261566,344.503906 346.672729,346.339600 
	C345.985260,352.956421 345.337860,359.187531 344.601013,366.279572 
	C332.938995,365.414642 321.436951,364.561584 309.381592,363.667480 
	C309.103546,367.505188 308.847321,371.041840 308.562683,374.970703 
	C264.912750,374.970703 221.659149,374.970703 177.860184,374.970703 
	C176.892075,382.504120 175.948395,389.694580 175.050858,396.890808 
	C174.537689,401.005341 174.474014,405.217896 173.525604,409.224792 
	C172.516968,413.486115 173.499893,416.560547 176.033676,420.171844 
	C180.257507,426.191956 185.118118,428.227417 192.591217,428.151398 
	C239.065598,427.678497 285.546051,427.803955 332.024506,427.731476 
	C333.814880,427.728699 335.605286,427.731140 337.709015,427.731140 
	C336.005341,445.177612 334.354706,462.012482 332.719513,478.848816 
	C331.467255,491.742645 330.283356,504.643341 328.982239,517.532227 
	C326.846008,538.693420 324.622192,559.845703 322.469177,581.005249 
	C321.274353,592.747375 320.148163,604.496521 318.577484,616.793823 
	C309.058105,620.383362 300.027740,623.675232 290.831818,626.410645 
	C266.492859,633.650330 242.031830,640.321472 216.401077,641.210693 
	C209.988190,641.433167 203.254364,641.347168 197.279892,643.287170 
	C186.821228,646.683350 176.836136,651.537964 166.652649,655.781616 
z"/>
<path fill="#FEFEFE" opacity="1.000000" stroke="none" 
	d="
M566.726868,604.167908 
	C559.548462,608.804443 552.144104,613.129944 545.239746,618.143921 
	C531.837646,627.876648 516.205139,632.303528 500.815430,637.196106 
	C496.398651,638.600281 491.304718,637.874268 486.650940,638.118164 
	C483.596588,628.986145 483.582367,628.924622 474.435944,631.037109 
	C462.345947,633.829468 450.292816,636.782959 438.185608,639.496704 
	C437.064240,639.747986 435.332092,639.124390 434.464386,638.297485 
	C432.192963,636.132935 430.243225,633.630676 427.983215,631.055664 
	C414.710907,635.292969 402.109253,642.225037 386.867615,641.701843 
	C387.907928,624.231384 388.960785,606.550293 390.439056,588.344971 
	C391.765961,587.399902 392.664825,586.973328 393.569336,586.559204 
	C451.887665,559.860779 508.108948,529.211304 563.188293,496.421814 
	C567.266418,493.994019 571.017456,492.379242 575.636963,495.130707 
	C576.589233,495.697845 578.549744,494.754456 579.981140,494.303192 
	C586.017273,492.400116 590.485413,487.880219 598.510742,489.505127 
	C611.202698,492.074982 624.553162,491.367004 637.620911,492.116516 
	C645.906189,492.591766 654.439514,492.161499 662.370728,494.122681 
	C667.228333,495.323761 670.854797,495.304260 674.710266,492.823761 
	C678.473572,490.402618 682.052429,491.345947 685.497437,493.218719 
	C694.450317,498.085724 703.217224,503.302338 712.244080,508.024261 
	C747.165039,526.291321 782.129761,544.475647 817.146851,562.557739 
	C825.168091,566.699707 833.463074,570.311584 841.632141,574.167480 
	C842.323486,575.589844 843.500305,576.968140 843.634094,578.441162 
	C845.993408,604.415527 848.225647,630.401489 850.485352,656.384888 
	C850.085449,656.689026 849.685486,656.993103 849.285583,657.297241 
	C847.696289,655.817139 845.216797,654.608948 844.667786,652.811157 
	C841.913879,643.793396 833.189087,643.852600 826.679626,640.715759 
	C825.826660,640.304688 823.324280,642.714600 821.923950,644.148193 
	C816.513733,649.686951 808.725342,648.117798 805.524536,640.996643 
	C803.599792,636.714600 801.563171,632.313232 798.688843,628.665039 
	C793.604004,622.211060 786.236389,625.189697 778.830627,624.907349 
	C782.126465,629.736511 785.009827,634.080383 788.018311,638.335815 
	C790.967468,642.507324 794.043945,646.588867 797.313293,651.049255 
	C791.864624,652.932861 786.794922,655.203491 781.364441,652.935547 
	C776.942566,651.088684 774.615845,652.624695 773.190186,656.751160 
	C772.874939,657.663696 772.242126,658.466614 772.113525,658.692200 
	C762.828552,655.593506 753.702637,652.913025 744.878479,649.460938 
	C739.874268,647.503235 735.528870,643.905701 730.582458,641.742615 
	C726.399719,639.913513 721.808899,638.962952 717.336609,637.879883 
	C715.689697,637.481018 713.865173,637.815552 711.243347,637.815552 
	C715.462769,643.309021 718.844299,647.711548 723.162109,653.333069 
	C713.688416,651.899414 705.820129,650.038330 697.884216,649.682129 
	C688.547913,649.262939 683.298096,642.618469 676.606934,637.964844 
	C671.099304,634.134460 665.364197,630.562012 659.446838,627.406006 
	C650.687256,622.734253 641.331116,619.101318 632.877869,613.959351 
	C625.478943,609.458679 617.554382,608.135559 609.380920,606.980469 
	C607.089355,606.656616 604.737061,606.547668 602.521179,605.942688 
	C595.751770,604.094421 589.551331,605.876526 583.316650,608.337158 
	C577.474426,610.642822 571.494324,612.599243 564.740173,615.006958 
	C565.793152,611.156494 566.672058,607.942444 567.252075,604.699219 
	C567.104492,604.763489 567.255859,604.856995 567.407166,604.950500 
	C567.180420,604.689636 566.953674,604.428772 566.726868,604.167908 
z"/>
<path fill="#E21B22" opacity="1.000000" stroke="none" 
	d="
M842.068359,574.049805 
	C833.463074,570.311584 825.168091,566.699707 817.146851,562.557739 
	C782.129761,544.475647 747.165039,526.291321 712.244080,508.024261 
	C703.217224,503.302338 694.450317,498.085724 685.497437,493.218719 
	C682.052429,491.345947 678.473572,490.402618 674.710266,492.823761 
	C670.854797,495.304260 667.228333,495.323761 662.370728,494.122681 
	C654.439514,492.161499 645.906189,492.591766 637.620911,492.116516 
	C624.553162,491.367004 611.202698,492.074982 598.510742,489.505127 
	C590.485413,487.880219 586.017273,492.400116 579.981140,494.303192 
	C578.549744,494.754456 576.589233,495.697845 575.636963,495.130707 
	C571.017456,492.379242 567.266418,493.994019 563.188293,496.421814 
	C508.108948,529.211304 451.887665,559.860779 393.569336,586.559204 
	C392.664825,586.973328 391.765961,587.399902 390.527740,587.905029 
	C391.322418,568.551208 392.442383,549.112427 393.591248,529.675354 
	C394.013306,522.534912 394.555176,515.401306 394.953491,508.259674 
	C396.389648,482.509552 397.830109,456.759491 399.143829,431.002991 
	C399.298035,427.979950 400.350342,426.716125 403.342133,427.100159 
	C403.997894,427.184357 404.673767,427.111603 405.340393,427.111603 
	C544.995972,427.111572 684.651550,427.111603 824.307129,427.111603 
	C825.961609,427.111603 827.616150,427.111603 830.014771,427.111603 
	C830.658875,432.970062 831.395386,438.655121 831.891174,444.361053 
	C833.648376,464.587158 835.258057,484.826202 837.047363,505.049408 
	C838.906738,526.064880 840.932373,547.065674 842.811340,568.079468 
	C842.983643,570.005798 842.619568,571.980103 842.068359,574.049805 
z"/>
<path fill="#E21B22" opacity="1.000000" stroke="none" 
	d="
M531.000000,325.765717 
	C549.455261,325.765594 567.410583,325.765594 585.710876,325.765594 
	C585.710876,341.998779 585.710876,358.213348 585.710876,374.721313 
	C536.568665,374.721313 487.506287,374.721313 438.472137,374.721313 
	C436.012146,362.173218 435.816040,363.414734 424.696411,364.672607 
	C417.984100,365.431915 411.225311,365.780243 403.745453,366.371948 
	C404.211395,359.938660 404.626953,354.201172 405.087250,347.845947 
	C420.958893,348.019623 421.137451,337.262054 419.785492,325.765839 
	C457.027832,325.765839 493.763916,325.765839 531.000000,325.765717 
z"/>
<path fill="#E21B22" opacity="1.000000" stroke="none" 
	d="
M746.000000,375.011841 
	C712.556396,375.011871 679.612793,375.011871 646.302246,375.011871 
	C646.302246,358.369965 646.302246,342.014252 646.302246,324.981903 
	C655.847900,324.981903 665.285461,325.056305 674.721619,324.969086 
	C716.828003,324.580048 758.934998,324.221863 801.038452,323.618805 
	C805.767517,323.551086 807.184448,325.096222 807.104675,329.544647 
	C807.039795,333.166168 807.065308,337.055908 808.308167,340.352692 
	C809.366821,343.160675 811.856018,345.820221 814.389893,347.557007 
	C816.403748,348.937317 819.441589,348.823822 822.645325,349.505615 
	C823.104858,354.512695 823.597961,359.885498 824.094482,365.296234 
	C816.352905,365.296234 808.930542,365.584717 801.546692,365.177277 
	C797.725159,364.966400 795.129456,365.700562 793.630554,369.350922 
	C791.655579,374.160736 788.016296,375.294769 782.955383,375.135437 
	C770.814331,374.753204 758.653076,375.011841 746.000000,375.011841 
z"/>
<path fill="#FDFCFC" opacity="1.000000" stroke="none" 
	d="
M167.043961,655.809448 
	C176.836136,651.537964 186.821228,646.683350 197.279892,643.287170 
	C203.254364,641.347168 209.988190,641.433167 216.401077,641.210693 
	C242.031830,640.321472 266.492859,633.650330 290.831818,626.410645 
	C300.027740,623.675232 309.058105,620.383362 318.503204,617.233032 
	C317.842468,627.321594 316.842499,637.522217 315.729736,648.873108 
	C310.451538,648.581055 305.202271,648.683655 300.076538,647.937561 
	C280.079010,645.026855 260.590698,647.057373 242.370911,655.605591 
	C226.594315,663.007629 210.766998,660.480957 194.698502,658.663330 
	C185.620377,657.636414 176.523636,656.773926 167.043961,655.809448 
z"/>
<path fill="#FBFBFB" opacity="1.000000" stroke="none" 
	d="
M916.201599,610.307495 
	C959.281677,629.572937 1002.530945,648.233704 1047.977783,662.374146 
	C1045.249634,662.362549 1042.176025,662.331299 1039.143188,661.964844 
	C1026.323120,660.416138 1013.486511,658.963318 1000.710754,657.100220 
	C987.991211,655.245239 975.496643,653.058655 964.306702,645.525818 
	C959.364136,642.198547 952.485596,641.762695 946.501282,639.963501 
	C937.643616,637.300232 928.789856,634.622742 919.966980,631.847839 
	C919.200439,631.606750 918.205200,630.656433 918.112793,629.933716 
	C917.295471,623.540039 916.658325,617.123474 916.201599,610.307495 
z"/>
<path fill="#1A0304" opacity="1.000000" stroke="none" 
	d="
M1043.103516,376.380981 
	C1043.378052,376.040924 1043.662842,376.138672 1043.856201,376.752167 
	C1043.599121,376.910004 1043.382202,376.760345 1043.103516,376.380981 
z"/>
<path fill="#000000" opacity="1.000000" stroke="none" 
	d="
M566.734375,604.217957 
	C566.953674,604.428772 567.180420,604.689636 567.407166,604.950500 
	C567.255859,604.856995 567.104492,604.763489 566.832031,604.417297 
	C566.710999,604.164551 566.741882,604.268005 566.734375,604.217957 
z"/>
</svg>